<svg width="1800" height="720" viewBox="0 0 1800 720" xmlns="http://www.w3.org/2000/svg" font-family="'Segoe UI', Arial, sans-serif">

  <defs>
    <marker id="arr" markerWidth="8" markerHeight="6" refX="8" refY="3" orient="auto">
      <polygon points="0 0, 8 3, 0 6" fill="#555555"/>
    </marker>
    <marker id="arr-sm" markerWidth="6" markerHeight="5" refX="6" refY="2.5" orient="auto">
      <polygon points="0 0, 6 2.5, 0 5" fill="#999999"/>
    </marker>
    <filter id="shadow">
      <feDropShadow dx="2" dy="2" stdDeviation="3" flood-opacity="0.08"/>
    </filter>
  </defs>

  <!-- Background -->
  <rect width="1800" height="720" fill="#F5F6FA"/>

  <!-- Title -->
  <text x="900" y="36" text-anchor="middle" font-size="18" font-weight="bold" fill="#2C3E50" letter-spacing="0.3">DriverJinn: Curvature-Informed GNN Pipeline for Cancer Driver Gene Prioritization</text>

  <!-- ══════════════════════════════════════════ -->
  <!-- BLOCK 1: Input Data  x=20 w=395 cx=217    -->
  <!-- ══════════════════════════════════════════ -->

  <g filter="url(#shadow)">
    <rect x="20" y="55" width="395" height="600" rx="12" fill="white" stroke="#4A90D9" stroke-width="2"/>
  </g>
  <rect x="20" y="55" width="395" height="48" rx="12" fill="#4A90D9"/>
  <rect x="20" y="90"  width="395" height="13"  fill="#4A90D9"/>
  <text x="217" y="84" text-anchor="middle" font-size="14" font-weight="bold" fill="white" letter-spacing="0.5">① Input Data</text>

  <!-- PPI network: hub at (217,200) -->
  <line x1="217" y1="200" x2="155" y2="148" stroke="#95A5A6" stroke-width="1.8"/>
  <line x1="217" y1="200" x2="282" y2="145" stroke="#95A5A6" stroke-width="1.8"/>
  <line x1="217" y1="200" x2="132" y2="225" stroke="#95A5A6" stroke-width="1.8"/>
  <line x1="217" y1="200" x2="296" y2="228" stroke="#95A5A6" stroke-width="1.8"/>
  <line x1="217" y1="200" x2="178" y2="268" stroke="#95A5A6" stroke-width="1.8"/>
  <line x1="217" y1="200" x2="258" y2="265" stroke="#95A5A6" stroke-width="1.8"/>
  <line x1="155" y1="148" x2="282" y2="145" stroke="#BDC3C7" stroke-width="1"/>
  <line x1="132" y1="225" x2="178" y2="268" stroke="#BDC3C7" stroke-width="1"/>
  <line x1="296" y1="228" x2="258" y2="265" stroke="#BDC3C7" stroke-width="1"/>
  <circle cx="217" cy="200" r="16" fill="#E74C3C" stroke="white" stroke-width="2.5"/>
  <circle cx="155" cy="148" r="11" fill="#4A90D9" stroke="white" stroke-width="2"/>
  <circle cx="282" cy="145" r="11" fill="#4A90D9" stroke="white" stroke-width="2"/>
  <circle cx="132" cy="225" r="11" fill="#4A90D9" stroke="white" stroke-width="2"/>
  <circle cx="296" cy="228" r="10" fill="#4A90D9" stroke="white" stroke-width="2"/>
  <circle cx="178" cy="268" r="9"  fill="#7FB3D3" stroke="white" stroke-width="1.5"/>
  <circle cx="258" cy="265" r="9"  fill="#7FB3D3" stroke="white" stroke-width="1.5"/>

  <text x="217" y="302" text-anchor="middle" font-size="12" font-weight="bold" fill="#2C3E50">Gene-Gene Interaction Network</text>
  <text x="217" y="320" text-anchor="middle" font-size="10" fill="#666666">11,583 genes · STRING database</text>

  <!-- Feature matrix box -->
  <rect x="52" y="340" width="290" height="90" rx="8" fill="#EBF5FB" stroke="#4A90D9" stroke-width="1.5"/>
  <text x="197" y="363" text-anchor="middle" font-size="11" font-weight="bold" fill="#2C3E50">Node Feature Matrix</text>
  <text x="197" y="385" text-anchor="middle" font-size="15" font-weight="bold" fill="#4A90D9">11,583 × 58</text>
  <text x="197" y="404" text-anchor="middle" font-size="9" fill="#666666">mutation freq · gene expression</text>
  <text x="197" y="418" text-anchor="middle" font-size="9" fill="#666666">evolutionary conservation · centrality</text>

  <!-- Known drivers box -->
  <rect x="52" y="448" width="290" height="62" rx="8" fill="#FEF9E7" stroke="#E8A838" stroke-width="1.5"/>
  <text x="197" y="470" text-anchor="middle" font-size="11" font-weight="bold" fill="#2C3E50">Known Cancer Drivers (Labels)</text>
  <text x="197" y="488" text-anchor="middle" font-size="10" fill="#666666">COSMIC CGC Tier 1 &amp; Tier 2</text>
  <text x="197" y="503" text-anchor="middle" font-size="9" fill="#888888">used in ranking loss supervision</text>

  <!-- CV split -->
  <rect x="52" y="528" width="290" height="42" rx="8" fill="#F9F9F9" stroke="#CCCCCC" stroke-width="1.5" stroke-dasharray="5,3"/>
  <text x="197" y="548" text-anchor="middle" font-size="10" font-weight="bold" fill="#555555">5-Fold Cross-Validation Split</text>
  <text x="197" y="563" text-anchor="middle" font-size="9" fill="#777777">stratified by known driver status</text>

  <!-- ══════════════════════════════════════════ -->
  <!-- ARROW 1  x=415–475                        -->
  <!-- ══════════════════════════════════════════ -->
  <line x1="418" y1="375" x2="472" y2="375" stroke="#555555" stroke-width="2.5" marker-end="url(#arr)"/>
  <text x="445" y="363" text-anchor="middle" font-size="9" fill="#777777" font-style="italic">curvature</text>
  <text x="445" y="391" text-anchor="middle" font-size="9" fill="#777777" font-style="italic">computation</text>

  <!-- ══════════════════════════════════════════ -->
  <!-- BLOCK 2: Curvature  x=475 w=395 cx=672    -->
  <!-- ══════════════════════════════════════════ -->

  <g filter="url(#shadow)">
    <rect x="475" y="55" width="395" height="600" rx="12" fill="white" stroke="#E8A838" stroke-width="2"/>
  </g>
  <rect x="475" y="55" width="395" height="48" rx="12" fill="#E8A838"/>
  <rect x="475" y="90"  width="395" height="13"  fill="#E8A838"/>
  <text x="672" y="84" text-anchor="middle" font-size="14" font-weight="bold" fill="white" letter-spacing="0.5">② Curvature Preprocessing</text>

  <!-- Step 1: ORC -->
  <rect x="505" y="110" width="335" height="100" rx="8" fill="#FEF9E7" stroke="#E8A838" stroke-width="1.5"/>
  <text x="672" y="132" text-anchor="middle" font-size="11" font-weight="bold" fill="#2C3E50">Ollivier-Ricci Curvature (ORC)</text>
  <text x="672" y="149" text-anchor="middle" font-size="9" fill="#555555">Measures local geometric stress per edge</text>
  <!-- Curvature edge mini-graph -->
  <line x1="530" y1="183" x2="563" y2="161" stroke="#E74C3C" stroke-width="3.5"/>
  <line x1="530" y1="183" x2="546" y2="160" stroke="#E74C3C" stroke-width="3"/>
  <line x1="563" y1="161" x2="584" y2="176" stroke="#F39C12" stroke-width="2.5"/>
  <line x1="530" y1="183" x2="542" y2="197" stroke="#3498DB" stroke-width="2"/>
  <line x1="563" y1="161" x2="577" y2="150" stroke="#3498DB" stroke-width="2"/>
  <circle cx="530" cy="183" r="7" fill="#555" stroke="white" stroke-width="1.5"/>
  <circle cx="563" cy="161" r="6" fill="#555" stroke="white" stroke-width="1.5"/>
  <circle cx="546" cy="160" r="5" fill="#555" stroke="white" stroke-width="1.5"/>
  <circle cx="584" cy="176" r="5" fill="#555" stroke="white" stroke-width="1.5"/>
  <circle cx="542" cy="197" r="5" fill="#555" stroke="white" stroke-width="1.5"/>
  <circle cx="577" cy="150" r="5" fill="#555" stroke="white" stroke-width="1.5"/>
  <!-- Legend -->
  <line x1="608" y1="163" x2="624" y2="163" stroke="#E74C3C" stroke-width="2.5"/>
  <text x="629" y="167" font-size="9" fill="#555">high κ (bottleneck)</text>
  <line x1="608" y1="178" x2="624" y2="178" stroke="#3498DB" stroke-width="2"/>
  <text x="629" y="182" font-size="9" fill="#555">low κ (peripheral)</text>
  <line x1="608" y1="193" x2="624" y2="193" stroke="#F39C12" stroke-width="2"/>
  <text x="629" y="197" font-size="9" fill="#555">mid κ</text>

  <!-- Down arrow -->
  <line x1="672" y1="213" x2="672" y2="230" stroke="#999" stroke-width="1.5" marker-end="url(#arr-sm)"/>

  <!-- Step 2: Feature augmentation -->
  <rect x="505" y="234" width="335" height="72" rx="8" fill="#FEF9E7" stroke="#E8A838" stroke-width="1.5"/>
  <text x="672" y="256" text-anchor="middle" font-size="11" font-weight="bold" fill="#2C3E50">Feature Augmentation</text>
  <rect x="520" y="263" width="68" height="30" rx="5" fill="#4A90D9"/>
  <text x="554" y="283" text-anchor="middle" font-size="12" font-weight="bold" fill="white">58-dim</text>
  <text x="608" y="282" text-anchor="middle" font-size="18" fill="#888">→</text>
  <rect x="630" y="263" width="68" height="30" rx="5" fill="#E8A838"/>
  <text x="664" y="283" text-anchor="middle" font-size="12" font-weight="bold" fill="white">73-dim</text>
  <text x="715" y="278" font-size="9" fill="#666">(+15 curvature</text>
  <text x="715" y="290" font-size="9" fill="#666">features appended)</text>

  <!-- Down arrow -->
  <line x1="672" y1="309" x2="672" y2="326" stroke="#999" stroke-width="1.5" marker-end="url(#arr-sm)"/>

  <!-- Step 3: Schur complement -->
  <rect x="505" y="330" width="335" height="75" rx="8" fill="#FEF9E7" stroke="#E8A838" stroke-width="1.5"/>
  <text x="672" y="352" text-anchor="middle" font-size="11" font-weight="bold" fill="#2C3E50">Schur Complement Augmentation</text>
  <text x="672" y="369" text-anchor="middle" font-size="9" fill="#555555">Randomly eliminates ρ=0.2 of nodes per view</text>
  <text x="672" y="383" text-anchor="middle" font-size="9" fill="#555555">Applied twice independently → two stochastic views</text>
  <text x="672" y="397" text-anchor="middle" font-size="8" fill="#888888">(fill-in edges preserve boundary connectivity via Schur elimination)</text>

  <!-- Fork into views -->
  <line x1="672" y1="408" x2="672" y2="424" stroke="#999" stroke-width="1.5"/>
  <line x1="577" y1="424" x2="762" y2="424" stroke="#999" stroke-width="1.5"/>
  <line x1="577" y1="424" x2="577" y2="442" stroke="#999" stroke-width="1.5" marker-end="url(#arr-sm)"/>
  <line x1="762" y1="424" x2="762" y2="442" stroke="#999" stroke-width="1.5" marker-end="url(#arr-sm)"/>

  <!-- View 1 -->
  <rect x="490" y="446" width="175" height="148" rx="8" fill="#EAFAF1" stroke="#3DAA6E" stroke-width="1.5"/>
  <text x="577" y="467" text-anchor="middle" font-size="11" font-weight="bold" fill="#2C3E50">View 1</text>
  <text x="577" y="481" text-anchor="middle" font-size="9" fill="#666">Schur augmentation (sample 1)</text>
  <line x1="555" y1="522" x2="582" y2="502" stroke="#3DAA6E" stroke-width="2.5"/>
  <line x1="555" y1="522" x2="562" y2="547" stroke="#3DAA6E" stroke-width="2.5"/>
  <line x1="582" y1="502" x2="608" y2="518" stroke="#3DAA6E" stroke-width="2"/>
  <circle cx="555" cy="522" r="9" fill="#3DAA6E" stroke="white" stroke-width="2"/>
  <circle cx="582" cy="502" r="8" fill="#3DAA6E" stroke="white" stroke-width="2"/>
  <circle cx="608" cy="518" r="7" fill="#3DAA6E" stroke="white" stroke-width="2"/>
  <circle cx="562" cy="547" r="7" fill="#3DAA6E" stroke="white" stroke-width="2"/>
  <text x="577" y="578" text-anchor="middle" font-size="9" fill="#555">different node subset eliminated</text>

  <!-- View 2 -->
  <rect x="675" y="446" width="175" height="148" rx="8" fill="#EBF5FB" stroke="#4A90D9" stroke-width="1.5"/>
  <text x="762" y="467" text-anchor="middle" font-size="11" font-weight="bold" fill="#2C3E50">View 2</text>
  <text x="762" y="481" text-anchor="middle" font-size="9" fill="#666">Schur augmentation (sample 2)</text>
  <line x1="738" y1="522" x2="765" y2="502" stroke="#4A90D9" stroke-width="2"/>
  <line x1="738" y1="522" x2="748" y2="547" stroke="#4A90D9" stroke-width="2"/>
  <line x1="765" y1="502" x2="790" y2="518" stroke="#4A90D9" stroke-width="2"/>
  <circle cx="738" cy="522" r="9" fill="#4A90D9" stroke="white" stroke-width="2"/>
  <circle cx="765" cy="502" r="8" fill="#4A90D9" stroke="white" stroke-width="2"/>
  <circle cx="790" cy="518" r="7" fill="#4A90D9" stroke="white" stroke-width="2"/>
  <circle cx="748" cy="547" r="7" fill="#4A90D9" stroke="white" stroke-width="2"/>
  <text x="762" y="578" text-anchor="middle" font-size="9" fill="#555">different node subset eliminated</text>

  <!-- ══════════════════════════════════════════ -->
  <!-- ARROW 2  x=870–930                        -->
  <!-- ══════════════════════════════════════════ -->
  <line x1="873" y1="375" x2="927" y2="375" stroke="#555555" stroke-width="2.5" marker-end="url(#arr)"/>
  <text x="900" y="363" text-anchor="middle" font-size="9" fill="#777777" font-style="italic">augmented</text>
  <text x="900" y="391" text-anchor="middle" font-size="9" fill="#777777" font-style="italic">views</text>

  <!-- ══════════════════════════════════════════ -->
  <!-- BLOCK 3: GNN Training  x=930 w=395 cx=1127 -->
  <!-- ══════════════════════════════════════════ -->

  <g filter="url(#shadow)">
    <rect x="930" y="55" width="395" height="600" rx="12" fill="white" stroke="#7B68EE" stroke-width="2"/>
  </g>
  <rect x="930" y="55" width="395" height="48" rx="12" fill="#7B68EE"/>
  <rect x="930" y="90"  width="395" height="13"  fill="#7B68EE"/>
  <text x="1127" y="84" text-anchor="middle" font-size="14" font-weight="bold" fill="white" letter-spacing="0.5">③ GNN Training</text>

  <!-- 5-fold dashed wrapper -->
  <rect x="948" y="110" width="360" height="492" rx="10" fill="#F8F7FF" stroke="#7B68EE" stroke-width="1.5" stroke-dasharray="6,3"/>
  <text x="1128" y="128" text-anchor="middle" font-size="9" fill="#7B68EE" font-style="italic">5-Fold Cross-Validation</text>

  <!-- View input labels -->
  <rect x="958"  y="136" width="140" height="36" rx="6" fill="#EAFAF1" stroke="#3DAA6E" stroke-width="1.5"/>
  <text x="1028" y="159" text-anchor="middle" font-size="11" font-weight="bold" fill="#2C3E50">View 1</text>
  <rect x="1121" y="136" width="140" height="36" rx="6" fill="#EBF5FB" stroke="#4A90D9" stroke-width="1.5"/>
  <text x="1191" y="159" text-anchor="middle" font-size="11" font-weight="bold" fill="#2C3E50">View 2</text>

  <line x1="1028" y1="174" x2="1028" y2="200" stroke="#999" stroke-width="1.5" marker-end="url(#arr-sm)"/>
  <line x1="1191" y1="174" x2="1191" y2="200" stroke="#999" stroke-width="1.5" marker-end="url(#arr-sm)"/>

  <!-- Shared GAT encoder -->
  <rect x="958" y="204" width="303" height="90" rx="8" fill="#EDE7FF" stroke="#7B68EE" stroke-width="2"/>
  <text x="1109" y="228" text-anchor="middle" font-size="11" font-weight="bold" fill="#2C3E50">Shared GAT Encoder</text>
  <text x="1109" y="246" text-anchor="middle" font-size="10" fill="#555555">Graph Attention Network</text>
  <text x="1109" y="263" text-anchor="middle" font-size="9" fill="#666666">128 hidden dims · 4 attention heads</text>
  <text x="1109" y="279" text-anchor="middle" font-size="9" fill="#666666">dropout 0.3 · EMA · gradient accumulation</text>

  <line x1="1048" y1="296" x2="1028" y2="322" stroke="#999" stroke-width="1.5" marker-end="url(#arr-sm)"/>
  <line x1="1170" y1="296" x2="1191" y2="322" stroke="#999" stroke-width="1.5" marker-end="url(#arr-sm)"/>

  <!-- Embeddings -->
  <rect x="958"  y="326" width="128" height="44" rx="6" fill="#EAFAF1" stroke="#3DAA6E" stroke-width="1.5"/>
  <text x="1022" y="346" text-anchor="middle" font-size="10" font-weight="bold" fill="#2C3E50">Embedding z₁</text>
  <text x="1022" y="362" text-anchor="middle" font-size="9" fill="#666">z₁ ∈ ℝ¹²⁸</text>

  <rect x="1133" y="326" width="128" height="44" rx="6" fill="#EBF5FB" stroke="#4A90D9" stroke-width="1.5"/>
  <text x="1197" y="346" text-anchor="middle" font-size="10" font-weight="bold" fill="#2C3E50">Embedding z₂</text>
  <text x="1197" y="362" text-anchor="middle" font-size="9" fill="#666">z₂ ∈ ℝ¹²⁸</text>

  <!-- Merge lines to loss -->
  <line x1="1022" y1="372" x2="1022" y2="393" stroke="#999" stroke-width="1.5"/>
  <line x1="1197" y1="372" x2="1197" y2="393" stroke="#999" stroke-width="1.5"/>
  <line x1="1022" y1="393" x2="1197" y2="393" stroke="#999" stroke-width="1.5"/>
  <line x1="1109" y1="393" x2="1109" y2="413" stroke="#999" stroke-width="1.5" marker-end="url(#arr-sm)"/>

  <!-- Joint loss -->
  <rect x="958" y="417" width="303" height="98" rx="8" fill="#FFF0F0" stroke="#E74C3C" stroke-width="1.5"/>
  <text x="1109" y="439" text-anchor="middle" font-size="11" font-weight="bold" fill="#2C3E50">Joint Loss Function</text>
  <rect x="968" y="447" width="130" height="58" rx="5" fill="white" stroke="#E8A838" stroke-width="1"/>
  <text x="1033" y="465" text-anchor="middle" font-size="9" font-weight="bold" fill="#E8A838">Contrastive Loss</text>
  <text x="1033" y="480" text-anchor="middle" font-size="9" fill="#666">NT-Xent  τ = 0.3</text>
  <text x="1033" y="495" text-anchor="middle" font-size="9" fill="#666">weight = 0.2</text>
  <text x="1110" y="481" text-anchor="middle" font-size="16" fill="#AAA">+</text>
  <rect x="1120" y="447" width="130" height="58" rx="5" fill="white" stroke="#7B68EE" stroke-width="1"/>
  <text x="1185" y="465" text-anchor="middle" font-size="9" font-weight="bold" fill="#7B68EE">Ranking Loss</text>
  <text x="1185" y="480" text-anchor="middle" font-size="9" fill="#666">Bayesian Personalized Ranking</text>
  <text x="1185" y="495" text-anchor="middle" font-size="9" fill="#666">weight = 0.8</text>

  <!-- Early stopping -->
  <rect x="958" y="527" width="303" height="42" rx="6" fill="#F9F9F9" stroke="#CCCCCC" stroke-width="1"/>
  <text x="1109" y="546" text-anchor="middle" font-size="9" fill="#555">Early stopping on smoothed NDCG@50</text>
  <text x="1109" y="561" text-anchor="middle" font-size="9" fill="#888">patience = 5 · ReduceLROnPlateau</text>

  <!-- ══════════════════════════════════════════ -->
  <!-- ARROW 3  x=1325–1385                      -->
  <!-- ══════════════════════════════════════════ -->
  <line x1="1328" y1="375" x2="1382" y2="375" stroke="#555555" stroke-width="2.5" marker-end="url(#arr)"/>
  <text x="1355" y="363" text-anchor="middle" font-size="9" fill="#777777" font-style="italic">gene</text>
  <text x="1355" y="391" text-anchor="middle" font-size="9" fill="#777777" font-style="italic">scores</text>

  <!-- ══════════════════════════════════════════ -->
  <!-- BLOCK 4: Output  x=1385 w=395 cx=1582     -->
  <!-- ══════════════════════════════════════════ -->

  <g filter="url(#shadow)">
    <rect x="1385" y="55" width="395" height="600" rx="12" fill="white" stroke="#3DAA6E" stroke-width="2"/>
  </g>
  <rect x="1385" y="55" width="395" height="48" rx="12" fill="#3DAA6E"/>
  <rect x="1385" y="90"  width="395" height="13"  fill="#3DAA6E"/>
  <text x="1582" y="84" text-anchor="middle" font-size="14" font-weight="bold" fill="white" letter-spacing="0.5">④ Output &amp; Validation</text>

  <!-- Gene ranking table -->
  <rect x="1408" y="110" width="350" height="205" rx="8" fill="#F0FFF4" stroke="#3DAA6E" stroke-width="1.5"/>
  <text x="1583" y="132" text-anchor="middle" font-size="11" font-weight="bold" fill="#2C3E50">Cancer Driver Gene Ranking</text>
  <text x="1583" y="148" text-anchor="middle" font-size="9" fill="#666">aggregated across 5 folds (median rank)</text>

  <!-- Table header -->
  <rect x="1418" y="155" width="330" height="22" rx="3" fill="#3DAA6E"/>
  <text x="1440" y="170" font-size="9" font-weight="bold" fill="white">Rank</text>
  <text x="1488" y="170" font-size="9" font-weight="bold" fill="white">Gene</text>
  <text x="1635" y="170" text-anchor="middle" font-size="9" font-weight="bold" fill="white">Score</text>
  <text x="1730" y="170" text-anchor="middle" font-size="9" font-weight="bold" fill="white">CGC</text>

  <!-- Row 1 -->
  <rect x="1418" y="177" width="330" height="20" fill="white"/>
  <text x="1440" y="191" font-size="9" fill="#333">1</text>
  <text x="1488" y="191" font-size="9" font-weight="bold" fill="#E74C3C">TP53</text>
  <text x="1635" y="191" text-anchor="middle" font-size="9" fill="#333">0.9999</text>
  <text x="1730" y="191" text-anchor="middle" font-size="9" fill="#3DAA6E">✓ T1</text>
  <!-- Row 2 -->
  <rect x="1418" y="197" width="330" height="20" fill="#F9FFF9"/>
  <text x="1440" y="211" font-size="9" fill="#333">2</text>
  <text x="1488" y="211" font-size="9" font-weight="bold" fill="#E74C3C">KRAS</text>
  <text x="1635" y="211" text-anchor="middle" font-size="9" fill="#333">0.9997</text>
  <text x="1730" y="211" text-anchor="middle" font-size="9" fill="#3DAA6E">✓ T1</text>
  <!-- Row 3 -->
  <rect x="1418" y="217" width="330" height="20" fill="white"/>
  <text x="1440" y="231" font-size="9" fill="#333">3</text>
  <text x="1488" y="231" font-size="9" font-weight="bold" fill="#E74C3C">PIK3CA</text>
  <text x="1635" y="231" text-anchor="middle" font-size="9" fill="#333">0.9995</text>
  <text x="1730" y="231" text-anchor="middle" font-size="9" fill="#3DAA6E">✓ T1</text>
  <!-- Row 4 -->
  <rect x="1418" y="237" width="330" height="20" fill="#F9FFF9"/>
  <text x="1440" y="251" font-size="9" fill="#333">4</text>
  <text x="1488" y="251" font-size="9" font-weight="bold" fill="#E74C3C">PTEN</text>
  <text x="1635" y="251" text-anchor="middle" font-size="9" fill="#333">0.9992</text>
  <text x="1730" y="251" text-anchor="middle" font-size="9" fill="#3DAA6E">✓ T1</text>
  <!-- Row 5 -->
  <rect x="1418" y="257" width="330" height="20" fill="white"/>
  <text x="1440" y="271" font-size="9" fill="#333">5</text>
  <text x="1488" y="271" font-size="9" font-weight="bold" fill="#E74C3C">MYC</text>
  <text x="1635" y="271" text-anchor="middle" font-size="9" fill="#333">0.9988</text>
  <text x="1730" y="271" text-anchor="middle" font-size="9" fill="#3DAA6E">✓ T1</text>

  <text x="1583" y="300" text-anchor="middle" font-size="12" fill="#999">· · ·</text>

  <!-- Validation Metrics -->
  <text x="1583" y="340" text-anchor="middle" font-size="12" font-weight="bold" fill="#2C3E50">Validation Metrics</text>

  <!-- AUROC badge -->
  <rect x="1408" y="350" width="100" height="88" rx="10" fill="#EDE7FF" stroke="#7B68EE" stroke-width="2"/>
  <text x="1458" y="374" text-anchor="middle" font-size="10" fill="#666">AUROC</text>
  <text x="1458" y="402" text-anchor="middle" font-size="22" font-weight="bold" fill="#7B68EE">0.81</text>
  <text x="1458" y="428" text-anchor="middle" font-size="8" fill="#888">best fold</text>

  <!-- NDCG@50 badge -->
  <rect x="1533" y="350" width="100" height="88" rx="10" fill="#EBF5FB" stroke="#4A90D9" stroke-width="2"/>
  <text x="1583" y="370" text-anchor="middle" font-size="10" fill="#666">NDCG</text>
  <text x="1583" y="384" text-anchor="middle" font-size="10" fill="#666">@50</text>
  <text x="1583" y="409" text-anchor="middle" font-size="22" font-weight="bold" fill="#4A90D9">0.52</text>
  <text x="1583" y="428" text-anchor="middle" font-size="8" fill="#888">best fold</text>

  <!-- Precision@50 badge -->
  <rect x="1658" y="350" width="100" height="88" rx="10" fill="#EAFAF1" stroke="#3DAA6E" stroke-width="2"/>
  <text x="1708" y="370" text-anchor="middle" font-size="10" fill="#666">Precision</text>
  <text x="1708" y="384" text-anchor="middle" font-size="10" fill="#666">@50</text>
  <text x="1708" y="409" text-anchor="middle" font-size="22" font-weight="bold" fill="#3DAA6E">0.43</text>
  <text x="1708" y="428" text-anchor="middle" font-size="8" fill="#888">best fold</text>

  <!-- COSMIC validation box -->
  <rect x="1408" y="452" width="350" height="65" rx="8" fill="#FEF9E7" stroke="#E8A838" stroke-width="1.5"/>
  <text x="1583" y="474" text-anchor="middle" font-size="11" font-weight="bold" fill="#2C3E50">Benchmarked Against COSMIC CGC</text>
  <text x="1583" y="492" text-anchor="middle" font-size="9" fill="#666">Tier 1 &amp; Tier 2 known cancer gene census</text>
  <text x="1583" y="507" text-anchor="middle" font-size="9" fill="#666">Fisher's exact test · Benjamini-Hochberg FDR</text>

  <!-- Novel candidates box -->
  <rect x="1408" y="530" width="350" height="60" rx="8" fill="#F5F0FF" stroke="#7B68EE" stroke-width="1.5"/>
  <text x="1583" y="552" text-anchor="middle" font-size="11" font-weight="bold" fill="#2C3E50">Novel Driver Candidates</text>
  <text x="1583" y="570" text-anchor="middle" font-size="9" fill="#666">High-confidence predictions not in CGC</text>
  <text x="1583" y="584" text-anchor="middle" font-size="9" fill="#666">prioritized for experimental validation</text>

</svg>
